<svg width="209" height="52" viewBox="0 0 209 52" fill="none" xmlns="http://www.w3.org/2000/svg">
<g id="Enlight">
<g id="Union">
<path d="M3.98142e-10 16.7526L4.67861e-06 33.6447H16.5136L16.5136 25.1288C14.8805 25.1288 13.2842 24.6376 11.9263 23.7172C10.5685 22.7968 9.51023 21.4886 8.8853 19.958C8.26036 18.4275 8.09685 16.7433 8.41544 15.1184C8.73403 13.4936 9.52041 12.0011 10.6751 10.8296C11.8299 9.6582 13.3011 8.86043 14.9027 8.53723C16.5044 8.21403 18.1646 8.37991 19.6733 9.01389C21.182 9.64787 22.4716 10.7215 23.3788 12.099C24.2861 13.4764 24.7703 15.0959 24.7703 16.7526L33.0271 16.7526C33.0271 13.4392 32.0586 10.2003 30.2441 7.44534C28.4295 4.6904 25.8505 2.54318 22.833 1.27522C19.8156 0.00725909 16.4952 -0.324498 13.2919 0.321903C10.0886 0.968303 7.14618 2.56383 4.83672 4.90672C2.52726 7.2496 0.954494 10.2346 0.317314 13.4843C0.105258 14.5658 -7.47375e-06 15.6605 3.98142e-10 16.7526Z" fill="#D8D8D8"/>
<path d="M28.1904 45.4906C31.2873 42.3489 33.0271 38.0878 33.0271 33.6447H24.7703C24.7703 35.8663 23.9004 37.9968 22.352 39.5677C20.8035 41.1385 18.7034 42.021 16.5136 42.021C14.3237 42.021 12.2236 41.1385 10.6751 39.5677C9.12669 37.9968 8.25678 35.8663 8.25678 33.6447L4.67861e-06 33.6447C5.33993e-06 38.0878 1.73982 42.3489 4.83671 45.4906C7.9336 48.6323 12.1339 50.3973 16.5136 50.3973C20.8932 50.3973 25.0935 48.6323 28.1904 45.4906Z" fill="#D8D8D8"/>
</g>
<g id="Enlight_2">
<path d="M53.6979 13.0894H76.2003V19.5223H61.4482V25.732H75.6719V32.0756H61.4482V38.3746H76.5526V44.8075H53.6979V13.0894Z" fill="#D8D8D8"/>
<path d="M81.0853 21.1306H87.9549L88.1751 24.7938C89.4521 21.7113 92.0062 20.5945 95.0888 20.5945C100.065 20.5945 103.147 23.945 103.147 29.5739V44.8075H95.4851V32.2096C95.4851 28.6357 94.9126 26.6254 92.4026 26.6254C89.8925 26.6254 88.7476 28.6357 88.7476 32.2096V44.8075H81.0853V21.1306Z" fill="#D8D8D8"/>
<path d="M108.751 13.0894H116.414V37.1684C116.414 38.4639 117.118 39.1787 118.351 39.1787H119.892V44.8075H115.929C111.614 44.8075 108.751 42.2612 108.751 37.5258V13.0894Z" fill="#D8D8D8"/>
<path d="M123.831 21.1306H131.494V44.8075H123.831V21.1306ZM123.743 18.2715V13.0894H131.626V18.2715H123.743Z" fill="#D8D8D8"/>
<path d="M145.716 43.7801C139.507 43.7801 135.588 39.3127 135.588 32.6117C135.588 25.3746 139.551 20.5945 145.716 20.5945C148.622 20.5945 151.044 22.1581 152.321 24.7045V21.1306H159.94V41.7697C159.94 48.0687 154.919 52 147.786 52C142.105 52 137.701 49.4089 136.292 45.3883L143.998 44.8522C144.571 46.1478 145.98 46.9965 147.874 46.9965C150.648 46.9965 152.189 45.5223 152.189 42.3952V40.3402C151 42.4845 148.358 43.7801 145.716 43.7801ZM143.382 32.5223C143.382 36.2302 145.276 38.8213 147.962 38.8213C150.78 38.8213 152.497 36.2302 152.542 32.5223C152.586 28.7251 150.78 26.1787 147.962 26.1787C145.143 26.1787 143.382 28.7251 143.382 32.5223Z" fill="#D8D8D8"/>
<path d="M165.416 13.0894H173.079V24.079C174.444 21.488 176.866 20.5945 179.64 20.5945C184.616 20.5945 187.478 24.3471 187.478 29.5739V44.8075H179.816V32.299C179.816 28.7698 179.244 26.7594 176.734 26.7594C174.223 26.7594 173.079 28.7698 173.079 32.299V44.8075H165.416V13.0894Z" fill="#D8D8D8"/>
<path d="M195.027 15.7251H202.689V21.1306H208.766V26.7148H202.689V36.5429C202.689 38.2405 203.57 39.1787 205.155 39.1787H208.854V44.8075H203.262C197.845 44.8075 195.027 42.1271 195.027 36.5429V26.7148H191.064V21.1306H195.027V15.7251Z" fill="#D8D8D8"/>
</g>
</g>
</svg>
