<svg width="208" height="44" viewBox="0 0 208 44" fill="none" xmlns="http://www.w3.org/2000/svg">
<g id="Group">
<path id="Vector" d="M184.106 8.44336L179.483 11.1014V15.3823H175.865V19.3523H179.483V27.4258C179.483 31.4292 181.795 33.5314 185.48 33.5314C186.804 33.5314 187.763 33.5315 188.935 33.5314H189.065H189.233V29.2753H189.065C188.394 29.2753 187.59 29.2602 186.719 29.2602C185.044 29.2602 184.106 28.427 184.106 26.3586V19.3521H189.233V15.3825H184.106V10.1107V8.44336ZM171.873 8.44372C171.508 8.44371 171.148 8.51501 170.812 8.65369C170.476 8.79237 170.171 8.99573 169.913 9.252C169.655 9.50827 169.451 9.81243 169.312 10.1473C169.173 10.4821 169.101 10.841 169.102 11.2034C169.101 11.5659 169.173 11.9246 169.312 12.2595C169.451 12.5943 169.655 12.8986 169.913 13.1549C170.171 13.4112 170.476 13.6144 170.812 13.7531C171.148 13.8918 171.508 13.9632 171.873 13.9632C172.607 13.9631 173.312 13.6723 173.832 13.1548C174.352 12.6372 174.644 11.9354 174.644 11.2034C174.644 10.4716 174.352 9.76966 173.832 9.25212C173.312 8.73458 172.607 8.44379 171.873 8.44372ZM52.6147 9.24429V33.1986H57.2716V24.9247L64.1061 33.1986H70.0363L61.7608 23.9237L69.1651 15.383H63.8047L57.2716 22.9228V9.24429H52.6147ZM132.176 9.24429V33.1986H136.464V30.6293C137.838 32.4977 139.781 33.532 142.093 33.532C146.917 33.532 150.032 29.495 150.032 24.2905C150.032 19.0193 146.917 15.0493 142.093 15.0493C139.949 15.0493 138.139 15.9504 136.832 17.6852V9.24429H132.176ZM77.8989 15.0493C72.7395 15.0493 69.0207 18.9193 69.0207 24.2239C69.0207 29.7954 72.6056 33.4986 77.966 33.4986C82.3214 33.4986 85.437 31.1966 86.4419 27.1598H81.8188C81.2827 28.928 79.9089 29.929 77.8652 29.929C75.4866 29.929 74.0797 28.3277 73.778 25.4251H86.4756C87.3131 19.6202 83.5608 15.0493 77.8989 15.0493ZM121.365 15.0493C116.205 15.0493 112.487 18.9193 112.487 24.2239C112.487 29.7954 116.071 33.4986 121.432 33.4986C125.787 33.4986 128.903 31.1966 129.908 27.1598H125.284C124.749 28.928 123.375 29.929 121.331 29.929C118.953 29.929 117.545 28.3277 117.244 25.4251H129.941C130.779 19.6202 127.027 15.0493 121.365 15.0493ZM159.035 15.0493C154.579 15.0493 151.73 17.3514 151.73 20.6542C151.73 23.4233 153.674 25.1914 156.89 25.7585L160.106 26.3593C161.815 26.6929 162.552 27.16 162.552 28.2943C162.552 29.562 161.179 30.1291 159.369 30.1291C157.058 30.1291 155.483 28.9614 155.45 27.1266H150.994C151.362 31.0967 154.211 33.532 159.303 33.532C164.395 33.532 167.242 31.2302 167.242 27.4936C167.242 24.9248 165.467 23.3233 161.982 22.6561L158.532 22.022C156.924 21.7218 156.186 21.2882 156.186 20.2206C156.186 19.0863 157.326 18.4525 159.035 18.4525C161.011 18.4525 162.317 19.5199 162.485 21.2547H166.942C166.606 17.4181 163.524 15.0493 159.035 15.0493ZM199.306 15.0493C194.147 15.0493 190.428 18.9193 190.428 24.2239C190.428 29.7954 194.013 33.4986 199.373 33.4986C203.728 33.4986 206.844 31.1966 207.849 27.1598H203.226C202.69 28.928 201.316 29.929 199.273 29.929C196.895 29.929 195.487 28.3277 195.186 25.4251H207.883C208.721 19.6202 204.968 15.0493 199.306 15.0493ZM86.4318 15.383L91.5239 33.1986H96.1809L99.5314 21.6216L102.915 33.1986H107.539L112.664 15.383H108.074L105.059 26.6593L101.877 15.383H97.2866L94.0033 26.6593L90.9546 15.383H86.4318ZM169.544 15.383V33.1986H174.201V15.383H169.544ZM77.7984 18.4525C80.0096 18.4525 81.4166 20.0204 81.5507 22.4891H73.8449C74.247 19.8535 75.6207 18.4525 77.7984 18.4525ZM121.264 18.4525C123.475 18.4525 124.883 20.0204 125.016 22.4891H117.311C117.713 19.8535 119.087 18.4525 121.264 18.4525ZM199.206 18.4525C201.417 18.4525 202.824 20.0204 202.958 22.4891H195.252C195.655 19.8535 197.029 18.4525 199.206 18.4525ZM141.054 19.1528C143.332 19.1528 145.242 20.8876 145.242 24.2905C145.242 27.6266 143.332 29.3952 141.054 29.3952C138.742 29.3952 136.866 27.5935 136.866 24.2239C136.866 20.8543 138.809 19.1528 141.054 19.1528Z" fill="#D8D8D8"/>
<path id="Vector_2" d="M24.0323 0.500886C23.2137 0.515921 22.3769 0.732806 21.5857 1.18766L2.55062 12.1314C0.000157908 13.5978 -0.637681 16.7138 0.637576 19.0048C1.0441 19.7348 1.64691 20.3797 2.44175 20.8622L7.08749 23.533C6.47577 20.4945 7.7031 17.1403 10.7754 15.374L20.3176 9.88795L29.173 4.7964C28.7783 2.21941 26.4879 0.454679 24.0323 0.500886ZM33.7289 5.97003C32.8908 5.95499 32.0286 6.1532 31.2115 6.59734L26.5658 9.26835C29.5142 10.2601 31.8177 12.9956 31.8177 16.5284V27.5002V37.683C34.2563 38.6311 36.9363 37.5382 38.124 35.3974C38.5199 34.6839 38.7498 33.8538 38.7498 32.9441L38.75 11.0564C38.7499 8.12382 36.359 6.01583 33.7289 5.97003ZM1.89568 23.5203C-0.148123 25.1493 -0.537668 28.007 0.730252 30.1016C1.15286 30.7998 1.75972 31.4133 2.55086 31.8681L21.586 42.8118C24.1365 44.278 27.1654 43.2702 28.5202 41.025C28.9519 40.3096 29.2111 39.4669 29.2334 38.5402L29.2331 33.1985C26.8965 35.2454 23.3656 35.8639 20.2933 34.0976L10.7514 28.6116L1.89568 23.5203Z" fill="#D8D8D8"/>
</g>
</svg>
