<svg width="208" height="52" viewBox="0 0 208 52" fill="none" xmlns="http://www.w3.org/2000/svg">
<g id="Group">
<path id="Vector" d="M26.6794 9.34509L17.7638 25.9943L22.22 34.3173H13.3721L8.92178 26.009H8.90714L4.4599 34.3141L4.46912 34.332V34.3403L8.92544 42.6615H8.93474H17.8475L17.8382 42.6453H17.8475H26.6893H35.6053H44.5014L48.9593 34.3224L53.4324 26.0042L44.5165 9.35507H26.6849L26.6794 9.34509ZM31.1387 17.6713H40.0411H40.0534L44.5113 25.9959L44.502 26.0074L44.4929 25.9928L40.0513 34.3208H31.1357L26.6778 25.996L31.1387 17.6713Z" fill="#D8D8D8"/>
<path id="Vector_2" d="M8.89897 9.34185L4.43952 17.6697L4.44874 17.6859L0 25.9926L4.45943 34.3141L8.91577 25.9926V25.9894L13.3737 17.6648H13.3568L17.8133 9.3418L8.89897 9.34185Z" fill="#D8D8D8"/>
<path id="Vector_3" d="M62.347 25.9854L53.4497 42.6341H62.3473L66.8067 34.308L62.347 25.9854Z" fill="#D8D8D8"/>
<path id="Vector_4" d="M53.4583 9.34158L57.9145 17.6647H57.8977L62.3555 25.9892L66.8119 34.3122L71.2715 25.9909L66.8225 17.6809L66.8302 17.666L62.3709 9.33813H53.4595L53.4583 9.34158Z" fill="#D8D8D8"/>
<path id="Vector_5" d="M136.454 11.5557C133.512 11.5557 130.92 12.1588 128.679 13.3672C126.437 14.5379 124.702 16.219 123.476 18.4093C122.285 20.5618 121.69 23.0923 121.69 26C121.69 28.9835 122.302 31.5705 123.529 33.7609C124.754 35.9135 126.472 37.5743 128.679 38.7449C130.92 39.8779 133.512 40.4445 136.454 40.4445C139.397 40.4445 141.971 39.8779 144.177 38.7449C146.418 37.5743 148.153 35.9135 149.38 33.7609C150.606 31.5705 151.218 28.9835 151.218 26C151.218 23.0923 150.606 20.5618 149.38 18.4093C148.153 16.219 146.418 14.5379 144.177 13.3672C141.971 12.1588 139.397 11.5557 136.454 11.5557ZM136.454 17.1633C138.906 17.1633 140.833 17.9558 142.234 19.542C143.67 21.0903 144.388 23.2432 144.388 26C144.388 28.6059 143.67 30.7385 142.234 32.4001C140.797 34.0241 138.871 34.8368 136.454 34.8368C134.037 34.8368 132.11 34.0241 130.675 32.4001C129.238 30.7385 128.521 28.6059 128.521 26C128.521 23.2432 129.221 21.0903 130.622 19.542C132.058 17.9558 134.002 17.1633 136.454 17.1633Z" fill="#D8D8D8"/>
<path id="Vector_6" d="M100.041 11.5557C97.4839 11.5557 95.1899 12.1588 93.158 13.3672C91.1615 14.5379 89.5847 16.219 88.429 18.4093C87.3082 20.5618 86.7472 23.0733 86.7472 25.9433C86.7472 28.7757 87.3082 31.2871 88.429 33.4775C89.5847 35.6678 91.1615 37.3853 93.158 38.6315C95.1899 39.84 97.4839 40.4445 100.041 40.4445C101.968 40.4445 103.771 40.1619 105.453 39.5954C107.169 38.9911 108.623 38.1027 109.814 36.9319V52H116.434V12.4048H110.023V15.6905C108.657 14.2932 107.17 13.2546 105.558 12.5748C103.947 11.8951 102.107 11.5557 100.041 11.5557ZM101.669 17.1633C103.56 17.1633 105.242 17.7111 106.714 18.8062C108.185 19.9014 109.219 21.3742 109.814 23.2245V28.7188C109.253 30.5694 108.22 32.061 106.714 33.1939C105.242 34.289 103.56 34.8368 101.669 34.8368C99.2871 34.8368 97.3261 34.0051 95.785 32.3434C94.2441 30.6818 93.4723 28.5492 93.4723 25.9433C93.4723 23.3376 94.2441 21.2225 95.785 19.5987C97.3261 17.9748 99.2871 17.1633 101.669 17.1633Z" fill="#D8D8D8"/>
<path id="Vector_7" d="M190.624 12.4047H197.035V16.7665C198.052 15.2936 199.487 14.1985 201.343 13.481C203.235 12.7634 205.388 12.4047 207.807 12.4047V17.8427C205.248 17.8427 203.024 18.2769 201.133 19.1455C199.276 19.9763 197.98 21.2981 197.245 23.1108V39.5948H190.624V12.4047Z" fill="#D8D8D8"/>
<path id="Vector_8" d="M167.926 40.4445C165.368 40.4445 163.073 39.8413 161.042 38.6329C159.046 37.4621 157.468 35.7812 156.312 33.5907C155.192 31.4382 154.632 28.9268 154.632 26.0567C154.632 23.2243 155.192 20.7131 156.312 18.5227C157.468 16.3322 159.046 14.6147 161.042 13.3685C163.073 12.1601 165.368 11.5556 167.926 11.5556C169.852 11.5556 171.656 11.8382 173.336 12.4047C175.053 13.0089 176.506 13.8974 177.698 15.0681V0H184.319V39.5954H177.906V36.3095C176.541 37.7068 175.053 38.7455 173.442 39.4253C171.831 40.105 169.992 40.4445 167.926 40.4445ZM169.553 34.8368C171.445 34.8368 173.127 34.289 174.599 33.1939C176.069 32.0988 177.104 30.6259 177.698 28.7755V23.2812C177.137 21.4307 176.105 19.9391 174.599 18.8061C173.127 17.711 171.445 17.1633 169.553 17.1633C167.171 17.1633 165.21 17.9949 163.669 19.6567C162.128 21.3182 161.356 23.451 161.356 26.0567C161.356 28.6624 162.128 30.7777 163.669 32.4015C165.21 34.0254 167.171 34.8368 169.553 34.8368Z" fill="#D8D8D8"/>
</g>
</svg>
